<svg xmlns="http://www.w3.org/2000/svg" xmlns:xlink="http://www.w3.org/1999/xlink" width="34" height="34" viewBox="0 0 34 34"><defs><style>.a{fill:url(#a);}.b{fill:#fff;}</style><linearGradient id="a" x1="0.096" y1="0.812" x2="0.897" y2="0.212" gradientUnits="objectBoundingBox"><stop offset="0" stop-color="#ffc107"/><stop offset="0.507" stop-color="#f44336"/><stop offset="1" stop-color="#9c27b0"/></linearGradient></defs><g transform="translate(-0.196 0.043)"><circle class="a" cx="17" cy="17" r="17" transform="translate(0.196 -0.043)"/><g transform="translate(7.304 7.295)"><path class="b" d="M123.2,109.468h-7.9a5.832,5.832,0,0,0-5.825,5.825v7.9a5.832,5.832,0,0,0,5.825,5.825h7.9a5.832,5.832,0,0,0,5.825-5.825v-7.9a5.832,5.832,0,0,0-5.825-5.825Zm3.858,13.729a3.858,3.858,0,0,1-3.858,3.858h-7.9a3.858,3.858,0,0,1-3.858-3.858v-7.9a3.858,3.858,0,0,1,3.858-3.858h7.9a3.858,3.858,0,0,1,3.858,3.858Z" transform="translate(-109.468 -109.468)"/><path class="b" d="M185.259,180.2a5.057,5.057,0,1,0,5.057,5.057,5.063,5.063,0,0,0-5.057-5.057Zm0,8.147a3.09,3.09,0,1,1,3.09-3.09,3.09,3.09,0,0,1-3.09,3.09Z" transform="translate(-175.483 -175.483)"/></g></g></svg>