<svg xmlns="http://www.w3.org/2000/svg" width="34.153" height="34.153" viewBox="0 0 34.153 34.153"><defs><style>.a{fill:#007ab9;}.b{fill:#f1f2f2;}</style></defs><g transform="translate(0 0.001)"><circle class="a" cx="17.076" cy="17.076" r="17.076" transform="translate(0 -0.001)"/><g transform="translate(8.24 7.295)"><path class="b" d="M46.108,35.123v7.04H42.026V35.595c0-1.649-.589-2.776-2.067-2.776a2.233,2.233,0,0,0-2.094,1.492,2.794,2.794,0,0,0-.135.995v6.856H33.648s.055-11.125,0-12.276H37.73v1.74c-.008.014-.02.027-.027.04h.027v-.04A4.053,4.053,0,0,1,41.409,29.6c2.685,0,4.7,1.755,4.7,5.525ZM29.378,23.969a2.127,2.127,0,1,0-.054,4.242h.026a2.128,2.128,0,1,0,.027-4.242ZM27.311,42.163h4.08V29.887h-4.08Z" transform="translate(-27.068 -23.969)"/></g></g></svg>