<svg xmlns="http://www.w3.org/2000/svg" width="88" height="88" viewBox="0 0 88 88"><defs><style>.a{fill:#ae984e;}.b{fill:#fff;stroke:#ae984e;stroke-width:0.5px;}</style></defs><g transform="translate(-937 -1851)"><circle class="a" cx="44" cy="44" r="44" transform="translate(937 1851)"/><g transform="translate(954 1867.877)"><path class="b" d="M410.081.5V18.043l-1.68-.84V.5h-1.68V17.3l-.84.63-.84-.63V.5h-1.68V17.2l-1.68.84V.5H400V19.646l5.881,9.311,5.881-9.311V.5Zm-4.2,25.309-1.659-2.627h3.319ZM408.6,21.5h-5.44l-1.114-1.764,2.07-1.032,1.764,1.327,1.764-1.327,2.07,1.032Zm0,0" transform="translate(-357.995 0)"/><path class="b" d="M200.694,176.5l-2.94,11.761h12.233l-2.94-11.761Zm-.788,10.081,2.1-8.4h3.729l2.1,8.4Zm0,0" transform="translate(-176.987 -157.518)"/><path class="b" d="M32.764,11.289V5.54h3.36V3.86h-3.36V.5h-1.68V3.86h-8.4V.5H21V3.86h-3.36V5.54H21v5.749l-2.5,7.693H6.721v-3.36H5.041v3.36H0v1.68H5.041v8.4H0v1.68H5.041V34.1h1.68v-3.36h7.971l-5.451,16.8h-4.2v1.68H8.7L7.421,53.166l1.6.519,1.448-4.46h5.223l-1.134,3.97,1.616.462,1.266-4.431h4.406v-1.68H17.916L20.8,37.464H32.971l2.88,10.081H31.924v1.68H36.33L37.6,53.656l1.616-.462-1.134-3.97H43.3l1.447,4.46,1.6-.519-1.276-3.941h3.658v-1.68h-4.2ZM22.683,5.54h8.4v5.041h-8.4ZM6.721,29.063v-8.4H17.962l-2.724,8.4Zm9.447,18.482H11.01l1.363-4.2h5Zm19.749-5.881-1.68-5.881H19.529l-1.68,5.881H12.917l9.536-29.4h8.859l9.536,29.4Zm1.68,5.881-1.2-4.2h5l1.368,4.2Zm0,0"/></g></g></svg>