<svg xmlns="http://www.w3.org/2000/svg" xmlns:xlink="http://www.w3.org/1999/xlink" width="130" height="130" viewBox="0 0 130 130"><defs><style>.a{fill:#222;}.b{fill:#fff;stroke:#000;stroke-width:0.2px;}.c{filter:url(#a);}</style><filter id="a" x="0" y="0" width="130" height="130" filterUnits="userSpaceOnUse"><feOffset dy="10" input="SourceAlpha"/><feGaussianBlur stdDeviation="10" result="b"/><feFlood flood-opacity="0.251"/><feComposite operator="in" in2="b"/><feComposite in="SourceGraphic"/></filter></defs><g transform="translate(-907 -1831)"><g class="c" transform="matrix(1, 0, 0, 1, 907, 1831)"><circle class="a" cx="35" cy="35" r="35" transform="translate(30 20)"/></g><g transform="translate(950.523 1864.823)"><path class="b" d="M408.019.5V14.454l-1.336-.668V.5h-1.337V13.865l-.668.5-.668-.5V.5h-1.336V13.786l-1.337.668V.5H400V15.729l4.678,7.406,4.678-7.406V.5Zm-3.341,20.132-1.32-2.09H406Zm2.164-3.426h-4.327l-.886-1.4,1.646-.821,1.4,1.055,1.4-1.055,1.647.821Zm0,0" transform="translate(-366.587 -0.5)"/><path class="b" d="M200.093,176.5l-2.339,9.356h9.731l-2.339-9.356Zm-.627,8.019,1.671-6.683H204.1l1.671,6.683Zm0,0" transform="translate(-181.235 -161.798)"/><path class="b" d="M26.062,9.082V4.509h2.673V3.173H26.062V.5H24.726V3.173H18.043V.5H16.707V3.173H14.034V4.509h2.673V9.082L14.722,15.2H5.346V12.528H4.01V15.2H0v1.337H4.01V23.22H0v1.337H4.01V27.23H5.346V24.557h6.341L7.351,37.922H4.01v1.337h2.91L5.9,42.393l1.27.413,1.152-3.548h4.154l-.9,3.158,1.286.367,1.007-3.525h3.505V37.922H14.252L16.542,29.9h9.684l2.291,8.019H25.394v1.337H28.9l1.007,3.525,1.286-.367-.9-3.158h4.154l1.151,3.548,1.27-.413-1.015-3.135h2.91V37.922H35.418ZM18.043,4.509h6.683v4.01H18.043ZM5.346,23.22V16.538h8.942L12.121,23.22Zm7.515,14.7h-4.1l1.084-3.341h3.974Zm15.71-4.678-1.337-4.678h-11.7L14.2,33.244H10.275L17.861,9.855h7.047l7.585,23.389Zm1.337,4.678-.955-3.341h3.974l1.088,3.341Zm0,0" transform="translate(0 -0.5)"/></g></g></svg>