<svg xmlns="http://www.w3.org/2000/svg" xmlns:xlink="http://www.w3.org/1999/xlink" width="130" height="130" viewBox="0 0 130 130"><defs><style>.a{fill:#222;}.b{fill:#fff;}.c{filter:url(#a);}</style><filter id="a" x="0" y="0" width="130" height="130" filterUnits="userSpaceOnUse"><feOffset dy="10" input="SourceAlpha"/><feGaussianBlur stdDeviation="10" result="b"/><feFlood flood-opacity="0.251"/><feComposite operator="in" in2="b"/><feComposite in="SourceGraphic"/></filter></defs><g transform="translate(-907 -1831)"><g class="c" transform="matrix(1, 0, 0, 1, 907, 1831)"><circle class="a" cx="35" cy="35" r="35" transform="translate(30 20)"/></g><g transform="translate(958.477 1864.982)"><path class="b" d="M108.778,0H86.815a2.69,2.69,0,0,0-2.687,2.687V39.752a2.69,2.69,0,0,0,2.687,2.687h21.963a2.69,2.69,0,0,0,2.687-2.687V2.687A2.69,2.69,0,0,0,108.778,0Zm-23.3,6.753h24.644V34.819H85.474Zm1.34-5.407h21.963a1.342,1.342,0,0,1,1.34,1.34V5.855H85.474V2.687A1.342,1.342,0,0,1,86.815,1.346Zm21.963,39.746H86.815a1.342,1.342,0,0,1-1.34-1.34V35.717h24.644v4.035A1.342,1.342,0,0,1,108.778,41.092Z" transform="translate(-84.128)"/><path class="b" d="M214.047,404.552a2.2,2.2,0,1,0,2.2,2.2A2.207,2.207,0,0,0,214.047,404.552Zm0,3.512a1.307,1.307,0,1,1,1.307-1.307A1.309,1.309,0,0,1,214.047,408.064Z" transform="translate(-200.379 -368.24)"/><path class="b" d="M197.855,38.543h6.1a.449.449,0,0,0,0-.9h-6.1a.449.449,0,1,0,0,.9Z" transform="translate(-187.238 -34.266)"/><path class="b" d="M179.858,38.543a.447.447,0,1,0-.318-.131A.452.452,0,0,0,179.858,38.543Z" transform="translate(-170.857 -34.266)"/></g></g></svg>