<svg xmlns="http://www.w3.org/2000/svg" xmlns:xlink="http://www.w3.org/1999/xlink" width="130" height="130" viewBox="0 0 130 130"><defs><style>.a{fill:#222;}.b{fill:#fff;}.c{filter:url(#a);}</style><filter id="a" x="0" y="0" width="130" height="130" filterUnits="userSpaceOnUse"><feOffset dy="10" input="SourceAlpha"/><feGaussianBlur stdDeviation="10" result="b"/><feFlood flood-opacity="0.251"/><feComposite operator="in" in2="b"/><feComposite in="SourceGraphic"/></filter></defs><g transform="translate(-180 -2496)"><g class="c" transform="matrix(1, 0, 0, 1, 180, 2496)"><circle class="a" cx="35" cy="35" r="35" transform="translate(30 20)"/></g><g transform="translate(230.364 2541.978)"><path class="b" d="M28.584,104.659l-14.548-8.4a.568.568,0,0,0-.852.492v2.822L7.444,96.26a.568.568,0,0,0-.852.492v2.822L.852,96.26A.568.568,0,0,0,0,96.752v5.856a.568.568,0,0,0,1.137,0V97.737l5.455,3.15v8.53l-5.455,3.15v-4.843a.568.568,0,0,0-1.137,0v5.828a.568.568,0,0,0,.852.492l5.739-3.314v2.822a.568.568,0,0,0,.852.492l5.739-3.314v2.822a.568.568,0,0,0,.852.492l14.548-8.4A.568.568,0,0,0,28.584,104.659Zm-15.4,4.757-5.455,3.15V97.737l5.455,3.15Zm1.137,3.15V97.737l12.843,7.415Zm-13.184-7.4a.568.568,0,1,1-.568-.568A.568.568,0,0,1,1.137,105.166Z" transform="translate(0 -96.183)"/></g></g></svg>