<svg xmlns="http://www.w3.org/2000/svg" width="49" height="49" viewBox="0 0 49 49"><defs><style>.a{fill:none;stroke:#fff;}.b{fill:#fff;}</style></defs><g transform="translate(134.155 104.5)"><circle class="a" cx="24" cy="24" r="24" transform="translate(-133.655 -104)"/><g transform="translate(-121.343 -92.755)"><path class="b" d="M20.881,42.013a2.558,2.558,0,0,0-1.855-.851,2.645,2.645,0,0,0-1.877.845l-1.735,1.729c-.143-.077-.285-.148-.423-.22-.2-.1-.384-.192-.543-.291a18.853,18.853,0,0,1-4.518-4.117,11.122,11.122,0,0,1-1.482-2.338c.45-.412.867-.84,1.274-1.252.154-.154.307-.313.461-.467a2.518,2.518,0,0,0,0-3.8l-1.5-1.5c-.17-.17-.346-.346-.511-.521-.329-.34-.675-.692-1.032-1.021A2.6,2.6,0,0,0,5.3,27.406a2.689,2.689,0,0,0-1.866.807l-.011.011L1.558,30.107A4.016,4.016,0,0,0,.367,32.659a9.623,9.623,0,0,0,.7,4.073,23.635,23.635,0,0,0,4.2,7,25.832,25.832,0,0,0,8.6,6.735A13.4,13.4,0,0,0,18.7,51.9c.115.006.236.011.346.011a4.136,4.136,0,0,0,3.167-1.361c.005-.011.016-.016.022-.027a12.48,12.48,0,0,1,.961-.994c.236-.225.478-.461.714-.708a2.738,2.738,0,0,0,.829-1.9,2.638,2.638,0,0,0-.845-1.883Zm1.965,5.78c-.005,0-.005.006,0,0-.214.231-.434.439-.67.67a14.435,14.435,0,0,0-1.059,1.1,2.646,2.646,0,0,1-2.064.873c-.082,0-.17,0-.253-.005a11.906,11.906,0,0,1-4.282-1.285,24.384,24.384,0,0,1-8.1-6.346,22.286,22.286,0,0,1-3.952-6.582,7.838,7.838,0,0,1-.615-3.436,2.52,2.52,0,0,1,.758-1.63l1.872-1.872a1.248,1.248,0,0,1,.834-.39,1.174,1.174,0,0,1,.8.384l.016.016c.335.313.653.637.988.983.17.176.346.351.521.532l1.5,1.5a1.048,1.048,0,0,1,0,1.7c-.159.159-.313.318-.472.472-.461.472-.9.911-1.378,1.339-.011.011-.022.016-.027.027a1.12,1.12,0,0,0-.285,1.246l.016.049a12.031,12.031,0,0,0,1.773,2.893l.005.005a20.147,20.147,0,0,0,4.874,4.435,7.493,7.493,0,0,0,.675.368c.2.1.384.192.543.291.022.011.044.027.066.038a1.19,1.19,0,0,0,.543.137,1.174,1.174,0,0,0,.834-.379l1.877-1.877a1.242,1.242,0,0,1,.829-.412,1.118,1.118,0,0,1,.79.4l.011.011,3.025,3.025A1.085,1.085,0,0,1,22.846,47.793Z" transform="translate(-0.344 -27.406)"/></g></g></svg>