<svg xmlns="http://www.w3.org/2000/svg" width="38" height="38" viewBox="0 0 38 38"><defs><style>.a,.d{fill:#ff26be;}.b{fill:#2e001f;}.c{fill:#fff;}.d{opacity:0.15;}</style></defs><path class="a" d="M6.967,12.8H31.033A7.068,7.068,0,0,1,38,19.946V43.656A7.068,7.068,0,0,1,31.033,50.8H6.967A7.068,7.068,0,0,1,0,43.656V19.946A7.068,7.068,0,0,1,6.967,12.8" transform="translate(0 -12.801)"/><path class="b" d="M27.032,34.134H50.463a5.757,5.757,0,0,1,5.7,5.859V63.1a5.757,5.757,0,0,1-5.7,5.859H27.032a5.757,5.757,0,0,1-5.7-5.859V39.993a5.757,5.757,0,0,1,5.7-5.859" transform="translate(-19.748 -32.549)"/><g transform="translate(7.232 10.287)"><path class="c" d="M105.647,153.5l4.462,8.653c.08.127.032.255-.1.255h-2.789a.311.311,0,0,1-.335-.207q-1.53-3.155-3.123-6.549h-.016c-.956,2.135-1.992,4.462-3.028,6.565a.307.307,0,0,1-.287.175H97.791c-.159,0-.175-.127-.1-.223l4.382-8.4L97.855,145.4a.139.139,0,0,1,.112-.239h2.741c.159,0,.239.032.287.175,1,2.135,2.008,4.223,2.964,6.358h.032c.924-2.1,1.944-4.223,2.916-6.31.08-.127.127-.207.287-.207h2.566c.127,0,.175.1.1.239Zm5.434,2.582c0-3.713,2.39-6.613,6.31-6.613a7.076,7.076,0,0,1,.829.032v-4.143a.159.159,0,0,1,.159-.159h2.566c.127,0,.159.048.159.127v14.565a11.353,11.353,0,0,0,.08,1.562c0,.112,0,.127-.1.175a9.494,9.494,0,0,1-4.079.924C113.551,162.546,111.081,160.411,111.081,156.077ZM118.22,152a2.186,2.186,0,0,0-.924-.159c-1.992,0-3.346,1.546-3.346,4.111,0,2.932,1.37,4.111,3.155,4.111a3.008,3.008,0,0,0,1.1-.175V152Z" transform="translate(-97.649 -145.16)"/><path class="d" d="M105.647,153.5l4.462,8.653c.08.127.032.255-.1.255h-2.789a.311.311,0,0,1-.335-.207q-1.53-3.155-3.123-6.549h-.016c-.956,2.135-1.992,4.462-3.028,6.565a.307.307,0,0,1-.287.175H97.791c-.159,0-.175-.127-.1-.223l4.382-8.4L97.855,145.4a.139.139,0,0,1,.112-.239h2.741c.159,0,.239.032.287.175,1,2.135,2.008,4.223,2.964,6.358h.032c.924-2.1,1.944-4.223,2.916-6.31.08-.127.127-.207.287-.207h2.566c.127,0,.175.1.1.239Zm5.434,2.582c0-3.713,2.39-6.613,6.31-6.613a7.076,7.076,0,0,1,.829.032v-4.143a.159.159,0,0,1,.159-.159h2.566c.127,0,.159.048.159.127v14.565a11.353,11.353,0,0,0,.08,1.562c0,.112,0,.127-.1.175a9.494,9.494,0,0,1-4.079.924C113.551,162.546,111.081,160.411,111.081,156.077ZM118.22,152a2.186,2.186,0,0,0-.924-.159c-1.992,0-3.346,1.546-3.346,4.111,0,2.932,1.37,4.111,3.155,4.111a3.008,3.008,0,0,0,1.1-.175V152Z" transform="translate(-97.649 -145.16)"/></g></svg>