<svg xmlns="http://www.w3.org/2000/svg" xmlns:xlink="http://www.w3.org/1999/xlink" width="38" height="38" viewBox="0 0 38 38"><defs><style>.a{fill:url(#a);}.b{fill:#ff7f18;}</style><radialGradient id="a" cx="0.329" cy="0.22" r="0.76" gradientTransform="translate(0)" gradientUnits="objectBoundingBox"><stop offset="0" stop-color="#423325" stop-opacity="0.98"/><stop offset="1" stop-color="#1c0a00"/></radialGradient></defs><g transform="translate(0)"><path class="a" d="M24.8,155.549H59.476v34.676H24.8Z" transform="translate(-23.138 -153.887)"/><path class="b" d="M1.583,132.37H36.417v34.752H1.583ZM0,168.746H38v-38H0ZM24.89,144.29c0-.13.047-.195.19-.195h2.486c.127,0,.19.049.19.195V157.1c0,.13-.032.195-.19.195H25.112c-.158,0-.206-.081-.206-.211v-12.8Zm-.174-3.686a1.616,1.616,0,1,1,3.23,0A1.532,1.532,0,0,1,26.3,142.26a1.508,1.508,0,0,1-1.583-1.657Zm-7.125,9.029c-.443-1.8-1.488-5.732-1.884-7.632h-.032c-.332,1.9-1.172,5.115-1.837,7.632Zm-4.4,2.631-1.251,4.871c-.032.13-.079.162-.238.162H9.373c-.158,0-.19-.049-.158-.244l4.5-16.142a5.386,5.386,0,0,0,.158-1.348c0-.114.048-.162.127-.162h3.325c.111,0,.158.032.19.162l5.035,17.522c.032.13,0,.211-.127.211H19.792c-.127,0-.206-.032-.237-.146l-1.3-4.888H13.189Z" transform="translate(0 -130.746)"/></g></svg>