<svg xmlns="http://www.w3.org/2000/svg" width="33.957" height="33.957" viewBox="0 0 33.957 33.957"><defs><style>.a{fill:#ec407a;}.b{fill:#c2185b;}</style></defs><ellipse class="a" cx="15.884" cy="15.884" rx="15.884" ry="15.884" transform="translate(1.094 0.976)"/><path class="b" d="M16.978,0A16.978,16.978,0,1,0,33.957,16.978,17,17,0,0,0,16.978,0Zm14.85,17.106a23.6,23.6,0,0,0-10.794-.335q-.719-1.794-1.554-3.538a32.025,32.025,0,0,0,8.691-5.989,14.771,14.771,0,0,1,3.663,9.735C31.834,17.021,31.828,17.061,31.828,17.106ZM26.671,5.745a29.861,29.861,0,0,1-8.111,5.6A59.65,59.65,0,0,0,13.02,2.674,14.694,14.694,0,0,1,26.672,5.747ZM10.923,3.425a57.472,57.472,0,0,1,5.656,8.72A29.882,29.882,0,0,1,2.439,13.935a14.9,14.9,0,0,1,8.485-10.51Zm-8.8,13.553c0-.318.028-.63.049-.942a32.1,32.1,0,0,0,3.765.246,31.955,31.955,0,0,0,11.6-2.214Q18.3,15.66,18.965,17.3A23.789,23.789,0,0,0,5.972,26.921a14.784,14.784,0,0,1-3.85-9.943Zm5.4,11.45A21.658,21.658,0,0,1,19.729,19.27,57.386,57.386,0,0,1,22.6,30.722,14.786,14.786,0,0,1,7.523,28.428Zm17.065,1.284a59.626,59.626,0,0,0-2.776-10.934,21.5,21.5,0,0,1,9.83.463A14.865,14.865,0,0,1,24.589,29.712Z"/></svg>