<svg xmlns="http://www.w3.org/2000/svg" width="49" height="49" viewBox="0 0 49 49"><defs><style>.a{fill:none;stroke:#fff;}</style></defs><g transform="translate(134.155 104.5)"><circle class="a" cx="24" cy="24" r="24" transform="translate(-133.655 -104)"/><g transform="translate(-122.607 -92.064)"><path class="a" d="M8.75,17.612v4.717a.762.762,0,0,0,1.377.452l2.759-3.755Z" transform="translate(0.149 0.299)"/><path class="a" d="M24.087.141a.763.763,0,0,0-.8-.055L.41,12.036a.763.763,0,0,0,.106,1.4l6.361,2.174L20.424,4.025,9.941,16.655,20.6,20.3a.78.78,0,0,0,.246.041.762.762,0,0,0,.755-.65L24.4.876a.764.764,0,0,0-.312-.734Z" transform="translate(0 0)"/></g></g></svg>