<svg xmlns="http://www.w3.org/2000/svg" xmlns:xlink="http://www.w3.org/1999/xlink" width="130" height="130" viewBox="0 0 130 130"><defs><style>.a{fill:#222;}.b{fill:#fff;}.c{filter:url(#a);}</style><filter id="a" x="0" y="0" width="130" height="130" filterUnits="userSpaceOnUse"><feOffset dy="10" input="SourceAlpha"/><feGaussianBlur stdDeviation="10" result="b"/><feFlood flood-opacity="0.251"/><feComposite operator="in" in2="b"/><feComposite in="SourceGraphic"/></filter></defs><g transform="translate(-180 -1189.574)"><g class="c" transform="matrix(1, 0, 0, 1, 180, 1189.57)"><circle class="a" cx="35" cy="35" r="35" transform="translate(30 20)"/></g><g transform="translate(228.102 1229.413)"><path class="b" d="M29.9,21.333H2.718A2.721,2.721,0,0,0,0,24.051V43.077A2.721,2.721,0,0,0,2.718,45.8h9.515c-.029,1.086-.237,2.822-1.012,3.638a1.333,1.333,0,0,1-1.028.439.68.68,0,1,0,0,1.359H22.424a.68.68,0,0,0,0-1.359,1.333,1.333,0,0,1-1.028-.439c-.775-.815-.983-2.551-1.012-3.638H29.9a2.721,2.721,0,0,0,2.718-2.718V24.051A2.721,2.721,0,0,0,29.9,21.333ZM12.6,49.873a8.275,8.275,0,0,0,1-4.077h5.424a8.276,8.276,0,0,0,1,4.077Zm18.661-6.8A1.361,1.361,0,0,1,29.9,44.437H2.718a1.361,1.361,0,0,1-1.359-1.359V40.359h29.9Zm0-4.077H1.359V24.051a1.361,1.361,0,0,1,1.359-1.359H29.9a1.361,1.361,0,0,1,1.359,1.359V39Z" transform="translate(0 -21.333)"/><circle class="b" cx="1.359" cy="1.359" r="1.359" transform="translate(14.949 19.706)"/></g></g></svg>