<svg xmlns="http://www.w3.org/2000/svg" width="34.153" height="34.153" viewBox="0 0 34.153 34.153"><defs><style>.a{fill:#eceff1;}.b{fill:#4caf50;}.c{fill:#fafafa;}</style></defs><path class="a" d="M29.2,4.908A17.278,17.278,0,0,0,17.14,0,16.952,16.952,0,0,0,2.413,25.384L0,34.153,9.015,31.8a17.876,17.876,0,0,0,8.134,2.059c15.131,0,22.663-18.306,12.03-28.9Z"/><path class="b" d="M16.271,30.121h-.031a14.338,14.338,0,0,1-7.706-2.268L3.2,29.238l1.43-5.187-.34-.534A14.043,14.043,0,0,1,2.13,16.033c0-12.513,15.29-18.77,24.139-9.926C35.1,14.859,28.9,30.121,16.271,30.121Z" transform="translate(0.901 0.831)"/><path class="c" d="M22.385,17.672l-.013.107c-.428-.213-2.514-1.234-2.9-1.375-.872-.323-.626-.051-2.3,1.867-.249.277-.5.3-.919.107a11.549,11.549,0,0,1-3.42-2.113,12.91,12.91,0,0,1-2.362-2.946c-.417-.72.455-.823,1.249-2.325a.782.782,0,0,0-.036-.746c-.107-.213-.956-2.305-1.312-3.139s-.693-.726-.956-.726a2.118,2.118,0,0,0-1.947.49C5.169,9.4,5.748,12,7.713,14.77c3.862,5.055,5.92,5.985,9.682,7.277a5.887,5.887,0,0,0,2.675.172,4.379,4.379,0,0,0,2.869-2.029,3.522,3.522,0,0,0,.256-2.028c-.105-.192-.384-.3-.811-.491Z" transform="translate(2.528 2.687)"/></svg>